<?xml version="1.0" encoding="iso-8859-1" ?>
<svg width="78" height="22" viewBox="0 0 78 22" fill="none" xmlns="http://www.w3.org/2000/svg">
<g clip-path="url(#clip0_9190_49582)">
<path d="M68.248 0.33606C66.9295 0.33606 66.0764 0.387763 65.4043 0.491171C63.7756 0.723839 62.483 3.74852 63.2327 4.31726C63.4395 4.47237 63.8015 4.44652 64.3185 4.34311C65.1199 4.188 66.5418 3.98118 68.5065 3.98118C71.3502 3.98118 73.2116 4.54993 73.2116 7.10927V9.12572H68.8167C63.8273 9.12572 60.6992 10.7285 60.6992 15.3302C60.6992 19.6992 63.6205 21.6639 68.7909 21.6639C74.6851 21.6639 77.2703 19.5958 77.2703 15.0717V7.08342C77.2703 1.93888 73.6252 0.33606 68.248 0.33606ZM73.1857 14.8649C73.1857 17.6569 71.2727 18.0705 68.6875 18.0705C66.6452 18.0705 64.7838 17.6569 64.7838 15.2268C64.7838 13.1328 66.1023 12.3055 68.8167 12.3055H73.2116V14.8649H73.1857Z" fill="#E52635"/>
<path d="M17.1133 13.4947C17.1133 18.6392 19.8794 21.6122 26.0063 21.6122H26.0581C32.1591 21.5863 34.9511 18.6392 34.9511 13.4947V3.92945C34.9511 2.32663 33.6327 1.00818 32.0299 1.00818H31.3577C31.0216 1.00818 30.7373 1.29255 30.7373 1.62863V13.4947C30.7373 16.1316 29.8841 17.6051 26.0581 17.6051C22.232 17.6051 21.3789 16.1316 21.3789 13.4947V3.9036C21.3789 2.58515 20.474 1.47352 19.259 1.11159C18.7161 0.956477 17.7854 0.982329 17.7854 0.982329C17.4494 0.982329 17.165 1.2667 17.165 1.60278V13.4947H17.1133Z" fill="#E52635"/>
<path d="M56.873 8.50533C56.873 3.36079 54.1068 0.387817 47.9799 0.387817H47.9282C41.8272 0.413669 39.0352 3.36079 39.0352 8.50533V18.691C39.0352 20.2938 40.3536 21.6123 41.9564 21.6123H42.6286C42.9646 21.6123 43.249 21.3279 43.249 20.9918V8.50533C43.249 5.86843 44.1021 4.39487 47.9282 4.39487C51.7543 4.39487 52.6074 5.86843 52.6074 8.50533V18.691C52.6074 20.0094 53.5122 21.1211 54.7273 21.483C55.2702 21.6381 56.2008 21.6123 56.2008 21.6123C56.5369 21.6123 56.8213 21.3279 56.8213 20.9918V8.50533H56.873Z" fill="#E52635"/>
<path d="M3.17856 21.6639H1.26552C0.981144 21.6639 0.696772 21.5087 0.541661 21.2502C0.386549 20.9917 0.386549 20.6815 0.515809 20.423L5.22086 11.2197L0.515809 2.22319C0.386549 1.96467 0.386549 1.65445 0.541661 1.39593C0.696772 1.13741 0.955292 0.9823 1.26552 0.9823H3.17856C5.0399 0.9823 6.3842 1.73201 7.26317 3.28312L11.7873 11.0129C11.8648 11.1421 11.8648 11.2972 11.7873 11.4265L7.34072 19.1562C6.3325 20.8624 5.01405 21.6639 3.17856 21.6639ZM1.23966 1.80956L6.04812 11.0387C6.09983 11.168 6.09983 11.2972 6.04812 11.4265L1.21381 20.8366H1.23966H3.15271C4.70382 20.8366 5.7379 20.2161 6.59102 18.7426L10.9341 11.2197L6.53931 3.69675C5.7896 2.40416 4.72968 1.80956 3.15271 1.80956H1.23966Z" fill="#E52635"/>
</g>
<defs>
<clipPath id="clip0_9190_49582">
<rect width="77.6851" height="22" fill="white"/>
</clipPath>
</defs>
</svg>
